# xmcd
#
# Track frame offsets:
#       150
#       21200
#       49050
#
# Disc length: 983 seconds
#
# Revision: 0
# Processed by: cddbd v1.5.1PL0 Copyright (c) Steve Scherf et al.
# Submitted via: CD-DA_X-Tractor v0.24
#
DISCID=1d03d503
DTITLE=MJ Cole - Hold On To Me [CD Single)
DYEAR=2000
DGENRE=Pop
TTITLE0=Hold On To Me Feat Elisabeth Troy (Re - Rub)
TTITLE1=Hold On To Me Feat Elisabeth Troy (Vocal Dub)
TTITLE2=Hold On To Me Feat Elisabeth Troy (K - Warrens Vocal Mix)
EXTD=
EXTT0=
EXTT1=
EXTT2=
PLAYORDER=
